Coordinates
version=1
nRows=9
nColumns=24
inDegrees=yes

Units are S.I. units (second, meters, Newtons, ...)
Angles are in degrees.

endheader
time	pelvis_tilt	pelvis_list	pelvis_rotation	pelvis_tx	pelvis_ty	pelvis_tz	hip_flexion_r	hip_adduction_r	hip_rotation_r	knee_angle_r	ankle_angle_r	subtalar_angle_r	mtp_angle_r	hip_flexion_l	hip_adduction_l	hip_rotation_l	knee_angle_l	ankle_angle_l	subtalar_angle_l	mtp_angle_l	lumbar_extension	lumbar_bending	lumbar_rotation
      1.74000000	      8.90914096	      1.31263760	     -1.46456787	     -0.18100320	      1.02580342	      0.01101642	     14.85803315	     -4.26625318	     -3.03744182	    -24.76492828	      7.58083629	     -1.56637235	     16.76254036	    -13.68688642	      4.06442163	    -10.28510282	     -6.21186331	     13.67160354	     11.62272804	      1.27749321	    -19.64646168	     -0.98584170	     -1.92097293
      1.74500000	      8.88016206	      1.54851728	     -1.45083594	     -0.17594403	      1.02486695	      0.01117623	     14.84156378	     -4.46382793	     -3.03357790	    -23.21057632	      7.38276477	     -1.46612395	     16.71993941	    -14.01941566	      4.31835893	    -10.07084512	     -6.11808436	     13.87685489	     11.50685963	      1.35430048	    -19.57055244	     -1.22320116	     -1.98790788
      1.75000000	      8.83238273	      1.79368474	     -1.44060029	     -0.17087315	      1.02387464	      0.01132534	     14.83932045	     -4.67466993	     -3.04214219	    -21.66144792	      7.17224127	     -1.36320024	     16.67575576	    -14.33528939	      4.58350137	     -9.84587910	     -6.02042794	     14.07935691	     11.38152138	      1.43894995	    -19.47397787	     -1.46776700	     -2.04732749
      1.75500000	      8.78774676	      2.04873854	     -1.43723640	     -0.16578896	      1.02285805	      0.01147252	     14.83213964	     -4.89896118	     -3.06681607	    -20.12771873	      6.95417075	     -1.26059919	     16.62943892	    -14.66176704	      4.86184416	     -9.62330279	     -5.91134258	     14.26972035	     11.24496450	      1.52813849	    -19.37999162	     -1.72286770	     -2.10116546
      1.76000000	      8.73296265	      2.29946921	     -1.43376643	     -0.16066554	      1.02180656	      0.01160587	     14.82806194	     -5.12219860	     -3.11463441	    -18.60616122	      6.73957501	     -1.14830998	     16.58204368	    -14.98768300	      5.13604192	     -9.40182480	     -5.78986639	     14.45607758	     11.11033187	      1.62884093	    -19.27165947	     -1.96950818	     -2.14959232
      1.76500000	      8.68174137	      2.55986927	     -1.43359922	     -0.15552150	      1.02074384	      0.01173582	     14.81893838	     -5.35882165	     -3.18925621	    -17.10658434	      6.51377981	     -1.02839336	     16.53252027	    -15.32537084	      5.42174836	     -9.18397908	     -5.65725758	     14.62815744	     10.97606284	      1.73526863	    -19.16657467	     -2.22556033	     -2.19668735
      1.77000000	      8.62387464	      2.82250254	     -1.43505871	     -0.15034962	      1.01964608	      0.01186280	     14.81918163	     -5.59911195	     -3.28994175	    -15.64175149	      6.28448057	     -0.89190773	     16.48002801	    -15.66399535	      5.71024676	     -8.97766039	     -5.51433365	     14.79762725	     10.84461971	      1.85230205	    -19.05204635	     -2.48097671	     -2.24204125
      1.77500000	      8.57623331	      3.07518676	     -1.43489664	     -0.14513358	      1.01854845	      0.01199848	     14.80503408	     -5.82977772	     -3.42902430	    -14.20936989	      6.04940612	     -0.74083571	     16.42317752	    -16.02354960	      5.98610762	     -8.78784686	     -5.36109655	     14.96451271	     10.73758355	      1.97915754	    -18.94607134	     -2.72459888	     -2.28298436
      1.78000000	      8.52480374	      3.32971532	     -1.43364319	     -0.13989100	      1.01742671	      0.01214127	     14.80032877	     -6.06104539	     -3.59432179	    -12.82580696	      5.81595909	     -0.58685708	     16.36530288	    -16.38496085	      6.26141561	     -8.60991003	     -5.20255199	     15.12087966	     10.65902198	      2.10166201	    -18.83349424	     -2.96791633	     -2.31425723
